<?xml version="1.0" encoding="utf-8"?>
<!-- Generator: pb Echevarría  -->
<svg version="1.1" xmlns="http://www.w3.org/2000/svg" xmlns:xlink="http://www.w3.org/1999/xlink" x="0px" y="0px"
	viewBox="0 0 204.62 204.62" style="enable-background:new 0 0 204.62 204.62;" xml:space="preserve">
	<style type="text/css">
		.lgrad_blue {
			fill: url(#lgrad_blue)
		}

		.fill_white {
			fill: #FFFFFF;
		}

		.fill_green {
			fill: #3A9948;
		}
	</style>
	<defs>
		<linearGradient id="lgrad_blue" x1="100%" y1="50%" x2="0%" y2="50%">
			<stop offset="0%" style="stop-color:rgb(4,116,165);stop-opacity:1.00" />
			<stop offset="100%" style="stop-color:rgb(27,67,154);stop-opacity:1.00" />
		</linearGradient>
	</defs>

		<g>
			<path id="people" class="fill_green" d="M86.45,111.16l-4.02-3.17c0.8-0.55,1.3-1.51,1.17-2.58c-0.15-1.23-1.15-2.22-2.38-2.35
			c-1.64-0.18-3.02,1.09-3.02,2.69c0,0.93,0.47,1.76,1.19,2.24l-4.02,3.17l-4.02-3.17c0.8-0.55,1.3-1.51,1.17-2.58
			c-0.15-1.23-1.15-2.22-2.38-2.35c-1.64-0.18-3.02,1.09-3.02,2.69c0,0.93,0.47,1.76,1.19,2.24l-4.02,3.17l0,0v0l-1.02-0.81v0
			l-3-2.36c0.72-0.49,1.19-1.31,1.19-2.24c0-1.6-1.38-2.87-3.02-2.69c-1.23,0.14-2.23,1.13-2.38,2.35
			c-0.13,1.07,0.36,2.04,1.17,2.58l-4.02,3.17h0v2.88h0l3.4-2.61c0,0,0,0,0,0l-1.7,8.08v0h2.76c0,0,0,0,0,0l0.32-1.82
			c0.05-0.31,1.51-0.31,1.56,0l0.31,1.82v0h2.73c0,0,0,0,0,0l-1.7-8.08v0l3.24,2.49v0l0.16,0.12v0l0,0l3.4-2.61v0l-1.7,8.08
			c0,0,0,0,0,0h3.26v0h1.18c0,0,0,0,0,0h3.25v0l-1.7-8.08c0,0,0,0,0,0l3.4,2.61v0l0,0l0,0l0,0h0v0l3.4-2.61v0l-1.7,8.08c0,0,0,0,0,0
			h2.73v0l0.31-1.82c0.05-0.31,1.51-0.31,1.56,0l0.32,1.82c0,0,0,0,0,0h2.76v0l-1.7-8.08c0,0,0,0,0,0l3.4,2.61h0L86.45,111.16
			L86.45,111.16z" />
			<path id="address" class="lgrad_blue" d="M98.91,108.4h-4.83l-0.79,2.33h-2.42l4.23-11.75h2.79l4.23,11.75H99.7L98.91,108.4z M98.22,106.37
				l-1.73-5.09l-1.73,5.09H98.22z M111.71,98.99v11.75h-2.13v-0.99c-0.55,0.69-1.39,1.21-2.72,1.21c-2.64,0-4.15-2.23-4.15-4.46
				c0-2.23,1.51-4.47,4.15-4.47c1.33,0,2.17,0.5,2.72,1.21v-4.25H111.71z M109.47,106.49c0-1.31-0.82-2.42-2.28-2.42
				c-1.46,0-2.3,1.11-2.3,2.42c0,1.31,0.84,2.42,2.3,2.42C108.65,108.91,109.47,107.8,109.47,106.49z M122.22,98.99v11.75h-2.13v-0.99c-0.55,0.69-1.39,1.21-2.72,1.21c-2.64,0-4.15-2.23-4.15-4.46
				c0-2.23,1.51-4.47,4.15-4.47c1.33,0,2.17,0.5,2.72,1.21v-4.25H122.22z M119.98,106.49c0-1.31-0.82-2.42-2.28-2.42
				c-1.46,0-2.3,1.11-2.3,2.42c0,1.31,0.84,2.42,2.3,2.42C119.16,108.91,119.98,107.8,119.98,106.49z M129.2,102.02v2.32c-2.52-0.3-2.84,1.31-2.84,2.89v3.51h-2.13v-8.51h2.13v1.39
				C127,102.56,128.18,102.02,129.2,102.02z M138.62,107.31h-6.31c0.3,1.14,1.24,1.75,2.42,1.75c0.97,0,1.64-0.52,1.9-0.84l1.71,1.01
				c-0.69,0.96-2,1.73-3.61,1.73c-2.82,0-4.68-1.88-4.68-4.46c0-2.67,2-4.47,4.35-4.47C136.96,102.02,139,103.95,138.62,107.31z
				 M136.54,105.67c-0.22-1.11-0.97-1.75-2.11-1.75c-1.04,0-1.86,0.65-2.12,1.75H136.54z M146.69,108.12c0,1.68-1.23,2.84-3.61,2.84c-1.63,0-3.27-0.65-3.66-2.08l2.05-0.64
				c0.07,0.35,0.4,0.92,1.64,0.92c0.89,0,1.39-0.32,1.39-0.89c0-0.81-1.22-0.77-2.23-0.99c-1.65-0.34-2.48-1.12-2.48-2.59
				c0-1.61,1.34-2.67,3.34-2.67c1.46,0,2.9,0.72,3.26,2.2l-1.93,0.47c-0.1-0.44-0.52-0.87-1.33-0.87c-0.62,0-1.26,0.24-1.26,0.87
				c0,0.76,1.14,0.81,1.81,0.96C145.77,106.1,146.69,106.67,146.69,108.12z M154.63,108.12c0,1.68-1.23,2.84-3.61,2.84c-1.63,0-3.27-0.65-3.66-2.08l2.05-0.64
				c0.07,0.35,0.4,0.92,1.64,0.92c0.89,0,1.39-0.32,1.39-0.89c0-0.81-1.22-0.77-2.23-0.99c-1.65-0.34-2.48-1.12-2.48-2.59
				c0-1.61,1.34-2.67,3.34-2.67c1.46,0,2.9,0.72,3.26,2.2l-1.93,0.47c-0.1-0.44-0.52-0.87-1.33-0.87c-0.62,0-1.26,0.24-1.26,0.87
				c0,0.76,1.14,0.81,1.81,0.96C153.71,106.1,154.63,106.67,154.63,108.12z" />
			<!-- words For All -->
			<g id="forall" class="fill_green">
				<path id="for"
					d="M91.72,113.32v4.46h5.04v0.89h-5.04v5.49h-0.89v-11.75h6.56v0.91H91.72z M106.6,119.92c0,2.45-1.95,4.46-4.41,4.46c-2.45,0-4.41-2.01-4.41-4.46c0-2.47,1.96-4.47,4.41-4.47
				C104.65,115.45,106.6,117.45,106.6,119.92z M105.71,119.92c0-1.96-1.56-3.58-3.53-3.58s-3.53,1.61-3.53,3.58
				c0,1.96,1.56,3.56,3.53,3.56S105.71,121.88,105.71,119.92z M111.64,115.45v1.04c-1.88,0-3.02,1.19-3.02,3.34v4.33h-0.91v-8.51h0.91v1.83 C109.21,116.34,110.25,115.45,111.64,115.45z" />
				<path id=="all"
					d="M121.76,121.83h-4.83l-0.79,2.33h-2.42l4.23-11.75h2.79l4.23,11.75h-2.42L121.76,121.83z M121.07,119.8 l-1.73-5.09l-1.73,5.09H121.07z M128.58,112.42v11.75h-2.13v-11.75H128.58z M132.73,112.42v11.75h-2.13v-11.75H132.73z" />
			</g>
			<path id="pin" class="lgrad_blue"
				d="M54.63,107.69c-0.28-0.6-0.44-1.26-0.44-1.94c0-1.29,0.55-2.53,1.52-3.39c0.96-0.86,2.26-1.28,3.55-1.13 c2.06,0.23,3.75,1.89,4,3.95c0.11,0.88-0.04,1.74-0.4,2.51l1.43,1.13l1.43-1.13c-0.28-0.6-0.44-1.26-0.44-1.94 c0-1.29,0.55-2.53,1.52-3.39c0.96-0.86,2.26-1.28,3.55-1.13c2.06,0.23,3.75,1.89,4,3.95c0.11,0.88-0.04,1.74-0.4,2.51l1.43,1.13 l1.43-1.13c-0.28-0.6-0.44-1.26-0.44-1.94c0-1.29,0.55-2.53,1.51-3.39c0.96-0.86,2.26-1.28,3.55-1.13c2.06,0.23,3.75,1.89,4,3.95 c0.11,0.88-0.04,1.74-0.4,2.51l0.14,0.11c2.49-5.22,4.27-10.1,4.27-13.37c0-10.89-8.83-19.72-19.72-19.72s-19.72,8.83-19.72,19.72 c0,3.3,1.81,8.23,4.33,13.51L54.63,107.69z M61.62,121.34c4.27,4.82,8.09,8.56,8.09,8.56s3.81-3.74,8.09-8.56H61.62z" />
			<!-- The dot -->
			<path class="fill_white" d="M74.97,91.77c0,2.93-2.32,5.33-5.27,5.33c-2.93,0-5.27-2.4-5.27-5.33c0-2.95,2.34-5.33,5.27-5.33
			C72.65,86.44,74.97,88.82,74.97,91.77z" />
		</g>
	</g>
</svg>