<?xml version="1.0" encoding="utf-8"?>
<!-- Generator: pb Echevarría  -->
<svg version="1.1" xmlns="http://www.w3.org/2000/svg" xmlns:xlink="http://www.w3.org/1999/xlink" x="0px" y="0px"
	 viewBox="0 0 204.62 204.62" style="enable-background:new 0 0 204.62 204.62;" xml:space="preserve">
<style type="text/css">
	.st0{fill:red;}
	.st1{fill:#FFFFFF;}
	.st2{fill:#red;}
	.st3{fill:#red;}
	.st4{fill:#red;}
	.st5{fill:#red;}
	.st6{fill:#red;stroke:#9EBD3B;stroke-miterlimit:10;}
	.st7{fill-rule:evenodd;clip-rule:evenodd;fill:#red;}
	.st8{fill-rule:evenodd;clip-rule:evenodd;fill:#FFFFFF;}
	.st9{fill:red;stroke:#red;stroke-width:0.96;stroke-linejoin:round;stroke-miterlimit:10;}
	.st10{fill-rule:evenodd;clip-rule:evenodd;fill:#1986AD;}
	.st11{fill-rule:evenodd;clip-rule:evenodd;fill:#10C2EC;}
	.st12{fill:#10C2EC;}
	.st13{fill:#1986AD;}
	.st14{fill:#3A9948;}
	.st15{fill:url(#SVGID_1_);}
	.st16{fill:url(#SVGID_2_);}
	.st17{fill:url(#SVGID_3_);}
	.st18{fill:url(#SVGID_4_);}
	.st19{fill:url(#SVGID_5_);}
	.st20{fill:url(#SVGID_6_);}
	.st21{fill:url(#SVGID_7_);}
	.st22{fill:url(#SVGID_8_);}
	.st23{fill:url(#SVGID_9_);}
	.st24{display:none;}
	.st25{display:inline;}
</style>
<g id="Layer_1">
	<g>
		<text transform="matrix(1 0 0 1 -2943.3589 -134.6761)" class="st1" style="font-family:'QanelasSoftDEMO-ExtraBold'; font-size:35.2592px; letter-spacing:-1;">address</text>
		<text transform="matrix(1 0 0 1 -2899.4272 -106.4681)"><tspan x="0" y="0" class="st2" style="font-family:'QanelasSoftDEMO-ExtraBold'; font-size:35.2592px; letter-spacing:-1;">for</tspan><tspan x="40.72" y="0" class="st2" style="font-family:'QanelasSoftDEMO-ExtraBold'; font-size:35.2592px; letter-spacing:-5;"> </tspan><tspan x="44.25" y="0" class="st1" style="font-family:'QanelasSoftDEMO-ExtraBold'; font-size:35.2592px; letter-spacing:-1;">all</tspan></text>
	</g>

	<g>
	<!-- These are the three people -->
		<path class="st14" d="M86.45,111.16l-4.02-3.17c0.8-0.55,1.3-1.51,1.17-2.58c-0.15-1.23-1.15-2.22-2.38-2.35
			c-1.64-0.18-3.02,1.09-3.02,2.69c0,0.93,0.47,1.76,1.19,2.24l-4.02,3.17l-4.02-3.17c0.8-0.55,1.3-1.51,1.17-2.58
			c-0.15-1.23-1.15-2.22-2.38-2.35c-1.64-0.18-3.02,1.09-3.02,2.69c0,0.93,0.47,1.76,1.19,2.24l-4.02,3.17l0,0v0l-1.02-0.81v0
			l-3-2.36c0.72-0.49,1.19-1.31,1.19-2.24c0-1.6-1.38-2.87-3.02-2.69c-1.23,0.14-2.23,1.13-2.38,2.35
			c-0.13,1.07,0.36,2.04,1.17,2.58l-4.02,3.17h0v2.88h0l3.4-2.61c0,0,0,0,0,0l-1.7,8.08v0h2.76c0,0,0,0,0,0l0.32-1.82
			c0.05-0.31,1.51-0.31,1.56,0l0.31,1.82v0h2.73c0,0,0,0,0,0l-1.7-8.08v0l3.24,2.49v0l0.16,0.12v0l0,0l3.4-2.61v0l-1.7,8.08
			c0,0,0,0,0,0h3.26v0h1.18c0,0,0,0,0,0h3.25v0l-1.7-8.08c0,0,0,0,0,0l3.4,2.61v0l0,0l0,0l0,0h0v0l3.4-2.61v0l-1.7,8.08c0,0,0,0,0,0
			h2.73v0l0.31-1.82c0.05-0.31,1.51-0.31,1.56,0l0.32,1.82c0,0,0,0,0,0h2.76v0l-1.7-8.08c0,0,0,0,0,0l3.4,2.61h0L86.45,111.16
			L86.45,111.16z"/>
		<g>
		<!-- This is the word Address -->
			<linearGradient id="SVGID_1_" gradientUnits="userSpaceOnUse" x1="150.1658" y1="131.541" x2="105.4579" y2="110.1589">
				<stop  offset="0" style="stop-color:#0474A5"/>
				<stop  offset="1" style="stop-color:#1B439A"/>
			</linearGradient>
			<path class="st15" d="M98.91,108.4h-4.83l-0.79,2.33h-2.42l4.23-11.75h2.79l4.23,11.75H99.7L98.91,108.4z M98.22,106.37
				l-1.73-5.09l-1.73,5.09H98.22z"/>
			<linearGradient id="SVGID_2_" gradientUnits="userSpaceOnUse" x1="152.8078" y1="126.0167" x2="108.0999" y2="104.6347">
				<stop  offset="0" style="stop-color:#0474A5"/>
				<stop  offset="1" style="stop-color:#1B439A"/>
			</linearGradient>
			<path class="st16" d="M111.71,98.99v11.75h-2.13v-0.99c-0.55,0.69-1.39,1.21-2.72,1.21c-2.64,0-4.15-2.23-4.15-4.46
				c0-2.23,1.51-4.47,4.15-4.47c1.33,0,2.17,0.5,2.72,1.21v-4.25H111.71z M109.47,106.49c0-1.31-0.82-2.42-2.28-2.42
				c-1.46,0-2.3,1.11-2.3,2.42c0,1.31,0.84,2.42,2.3,2.42C108.65,108.91,109.47,107.8,109.47,106.49z"/>
			<linearGradient id="SVGID_3_" gradientUnits="userSpaceOnUse" x1="154.7643" y1="121.9259" x2="110.0564" y2="100.5439">
				<stop  offset="0" style="stop-color:#0474A5"/>
				<stop  offset="1" style="stop-color:#1B439A"/>
			</linearGradient>
			<path class="st17" d="M122.22,98.99v11.75h-2.13v-0.99c-0.55,0.69-1.39,1.21-2.72,1.21c-2.64,0-4.15-2.23-4.15-4.46
				c0-2.23,1.51-4.47,4.15-4.47c1.33,0,2.17,0.5,2.72,1.21v-4.25H122.22z M119.98,106.49c0-1.31-0.82-2.42-2.28-2.42
				c-1.46,0-2.3,1.11-2.3,2.42c0,1.31,0.84,2.42,2.3,2.42C119.16,108.91,119.98,107.8,119.98,106.49z"/>
			<linearGradient id="SVGID_4_" gradientUnits="userSpaceOnUse" x1="155.5937" y1="120.1917" x2="110.8858" y2="98.8097">
				<stop  offset="0" style="stop-color:#0474A5"/>
				<stop  offset="1" style="stop-color:#1B439A"/>
			</linearGradient>
			<path class="st18" d="M129.2,102.02v2.32c-2.52-0.3-2.84,1.31-2.84,2.89v3.51h-2.13v-8.51h2.13v1.39
				C127,102.56,128.18,102.02,129.2,102.02z"/>
			<linearGradient id="SVGID_5_" gradientUnits="userSpaceOnUse" x1="156.9928" y1="117.2664" x2="112.2849" y2="95.8844">
				<stop  offset="0" style="stop-color:#0474A5"/>
				<stop  offset="1" style="stop-color:#1B439A"/>
			</linearGradient>
			<path class="st19" d="M138.62,107.31h-6.31c0.3,1.14,1.24,1.75,2.42,1.75c0.97,0,1.64-0.52,1.9-0.84l1.71,1.01
				c-0.69,0.96-2,1.73-3.61,1.73c-2.82,0-4.68-1.88-4.68-4.46c0-2.67,2-4.47,4.35-4.47C136.96,102.02,139,103.95,138.62,107.31z
				 M136.54,105.67c-0.22-1.11-0.97-1.75-2.11-1.75c-1.04,0-1.86,0.65-2.12,1.75H136.54z"/>
			<linearGradient id="SVGID_6_" gradientUnits="userSpaceOnUse" x1="158.5757" y1="113.9566" x2="113.8678" y2="92.5745">
				<stop  offset="0" style="stop-color:#0474A5"/>
				<stop  offset="1" style="stop-color:#1B439A"/>
			</linearGradient>
			<path class="st20" d="M146.69,108.12c0,1.68-1.23,2.84-3.61,2.84c-1.63,0-3.27-0.65-3.66-2.08l2.05-0.64
				c0.07,0.35,0.4,0.92,1.64,0.92c0.89,0,1.39-0.32,1.39-0.89c0-0.81-1.22-0.77-2.23-0.99c-1.65-0.34-2.48-1.12-2.48-2.59
				c0-1.61,1.34-2.67,3.34-2.67c1.46,0,2.9,0.72,3.26,2.2l-1.93,0.47c-0.1-0.44-0.52-0.87-1.33-0.87c-0.62,0-1.26,0.24-1.26,0.87
				c0,0.76,1.14,0.81,1.81,0.96C145.77,106.1,146.69,106.67,146.69,108.12z"/>
			<linearGradient id="SVGID_7_" gradientUnits="userSpaceOnUse" x1="160.0539" y1="110.8658" x2="115.346" y2="89.4837">
				<stop  offset="0" style="stop-color:#0474A5"/>
				<stop  offset="1" style="stop-color:#1B439A"/>
			</linearGradient>
			<path class="st21" d="M154.63,108.12c0,1.68-1.23,2.84-3.61,2.84c-1.63,0-3.27-0.65-3.66-2.08l2.05-0.64
				c0.07,0.35,0.4,0.92,1.64,0.92c0.89,0,1.39-0.32,1.39-0.89c0-0.81-1.22-0.77-2.23-0.99c-1.65-0.34-2.48-1.12-2.48-2.59
				c0-1.61,1.34-2.67,3.34-2.67c1.46,0,2.9,0.72,3.26,2.2l-1.93,0.47c-0.1-0.44-0.52-0.87-1.33-0.87c-0.62,0-1.26,0.24-1.26,0.87
				c0,0.76,1.14,0.81,1.81,0.96C153.71,106.1,154.63,106.67,154.63,108.12z"/>
		</g>
		<!-- words For All -->
		<g>
			<path class="st14" d="M91.72,113.32v4.46h5.04v0.89h-5.04v5.49h-0.89v-11.75h6.56v0.91H91.72z"/>
			<path class="st14" d="M106.6,119.92c0,2.45-1.95,4.46-4.41,4.46c-2.45,0-4.41-2.01-4.41-4.46c0-2.47,1.96-4.47,4.41-4.47
				C104.65,115.45,106.6,117.45,106.6,119.92z M105.71,119.92c0-1.96-1.56-3.58-3.53-3.58s-3.53,1.61-3.53,3.58
				c0,1.96,1.56,3.56,3.53,3.56S105.71,121.88,105.71,119.92z"/>
			<path class="st14" d="M111.64,115.45v1.04c-1.88,0-3.02,1.19-3.02,3.34v4.33h-0.91v-8.51h0.91v1.83
				C109.21,116.34,110.25,115.45,111.64,115.45z"/>
			<path class="st14" d="M121.76,121.83h-4.83l-0.79,2.33h-2.42l4.23-11.75h2.79l4.23,11.75h-2.42L121.76,121.83z M121.07,119.8
				l-1.73-5.09l-1.73,5.09H121.07z"/>
			<path class="st14" d="M128.58,112.42v11.75h-2.13v-11.75H128.58z"/>
			<path class="st14" d="M132.73,112.42v11.75h-2.13v-11.75H132.73z"/>
		</g>
		<!-- Pin upper parrt -->
		<linearGradient id="SVGID_8_" gradientUnits="userSpaceOnUse" x1="96.4865" y1="136.7716" x2="53.4294" y2="69.4788">
			<stop  offset="0" style="stop-color:#0474A5"/>
			<stop  offset="1" style="stop-color:#1B439A"/>
		</linearGradient>
		<path class="st22" d="M54.63,107.69c-0.28-0.6-0.44-1.26-0.44-1.94c0-1.29,0.55-2.53,1.52-3.39c0.96-0.86,2.26-1.28,3.55-1.13
			c2.06,0.23,3.75,1.89,4,3.95c0.11,0.88-0.04,1.74-0.4,2.51l1.43,1.13l1.43-1.13c-0.28-0.6-0.44-1.26-0.44-1.94
			c0-1.29,0.55-2.53,1.52-3.39c0.96-0.86,2.26-1.28,3.55-1.13c2.06,0.23,3.75,1.89,4,3.95c0.11,0.88-0.04,1.74-0.4,2.51l1.43,1.13
			l1.43-1.13c-0.28-0.6-0.44-1.26-0.44-1.94c0-1.29,0.55-2.53,1.51-3.39c0.96-0.86,2.26-1.28,3.55-1.13c2.06,0.23,3.75,1.89,4,3.95
			c0.11,0.88-0.04,1.74-0.4,2.51l0.14,0.11c2.49-5.22,4.27-10.1,4.27-13.37c0-10.89-8.83-19.72-19.72-19.72s-19.72,8.83-19.72,19.72
			c0,3.3,1.81,8.23,4.33,13.51L54.63,107.69z"/>
<!-- Pin lower part -->
		<linearGradient id="SVGID_9_" gradientUnits="userSpaceOnUse" x1="84.4879" y1="144.4488" x2="41.4308" y2="77.156">
			<stop  offset="0" style="stop-color:#0474A5"/>
			<stop  offset="1" style="stop-color:#1B439A"/>
		</linearGradient>
		<path class="st23" d="M61.62,121.34c4.27,4.82,8.09,8.56,8.09,8.56s3.81-3.74,8.09-8.56H61.62z"/>
		<path class="st1" d="M74.97,91.77c0,2.93-2.32,5.33-5.27,5.33c-2.93,0-5.27-2.4-5.27-5.33c0-2.95,2.34-5.33,5.27-5.33
			C72.65,86.44,74.97,88.82,74.97,91.77z"/>
	</g>
</g>
</svg>
